<?xml version="1.0" encoding="UTF-8" standalone="no" ?>
<!DOCTYPE svg PUBLIC "-//W3C//DTD SVG 1.1//EN" "http://www.w3.org/Graphics/SVG/1.1/DTD/svg11.dtd">
<svg xmlns="http://www.w3.org/2000/svg" xmlns:xlink="http://www.w3.org/1999/xlink" version="1.1" width="1080" height="1080" viewBox="0 0 1080 1080" xml:space="preserve">
<desc>Created with Fabric.js 5.2.4</desc>
<defs>
</defs>
<g transform="matrix(1 0 0 1 540 540)" id="715f5639-83f8-4e32-a724-8077af67db01"  >
<rect style="stroke: none; stroke-width: 1; stroke-dasharray: none; stroke-linecap: butt; stroke-dashoffset: 0; stroke-linejoin: miter; stroke-miterlimit: 4; fill: rgb(255,255,255); fill-rule: nonzero; opacity: 1; visibility: hidden;" vector-effect="non-scaling-stroke"  x="-540" y="-540" rx="0" ry="0" width="1080" height="1080" />
</g>
<g transform="matrix(1 0 0 1 540 540)" id="9e130b40-ddaf-484d-bc8f-faed98f93a89"  >
</g>
<g transform="matrix(2.91 0 0 2.91 540 540)"  >
<path style="stroke: rgb(255,255,255); stroke-opacity: 0; stroke-width: 1; stroke-dasharray: none; stroke-linecap: butt; stroke-dashoffset: 0; stroke-linejoin: miter; stroke-miterlimit: 4; fill: rgb(51,40,133); fill-rule: nonzero; opacity: 1;" vector-effect="non-scaling-stroke"  transform=" translate(-171.43, -171.43)" d="M 0 171.426 C 0 76.74999999999999 76.75 0 171.426 0 C 266.102 0 342.852 76.75 342.852 171.426 C 342.852 266.102 266.102 342.852 171.426 342.852 C 76.74999999999999 342.852 0 266.102 0 171.426 z M 171.426 341.277 C 265.23199999999997 341.277 341.277 265.23199999999997 341.277 171.426 C 341.277 77.61999999999999 265.23199999999997 1.5749999999999886 171.426 1.5749999999999886 C 77.61999999999999 1.5749999999999886 1.5749999999999886 77.61999999999999 1.5749999999999886 171.426 C 1.5749999999999886 265.23199999999997 77.61999999999999 341.277 171.426 341.277 z" stroke-linecap="round" />
</g>
<g transform="matrix(2.91 0 0 2.91 540 540)"  >
<ellipse style="stroke: rgb(255,255,255); stroke-opacity: 0; stroke-width: 0; stroke-dasharray: none; stroke-linecap: butt; stroke-dashoffset: 0; stroke-linejoin: miter; stroke-miterlimit: 4; fill: rgb(51,40,133); fill-rule: nonzero; opacity: 1;" vector-effect="non-scaling-stroke"  cx="0" cy="0" rx="164.56874808852183" ry="164.56874808852183" />
</g>
<g transform="matrix(8.32 0 0 8.32 540 540)"  >
<path style="stroke: none; stroke-width: 1; stroke-dasharray: none; stroke-linecap: butt; stroke-dashoffset: 0; stroke-linejoin: miter; stroke-miterlimit: 4; fill: rgb(255,255,255); fill-rule: nonzero; opacity: 1;" vector-effect="non-scaling-stroke"  transform=" translate(-50, -50)" d="M 72.3 12.3 L 72.3 12.3 L 72.3 12.3 L 71.89999999999999 11.5 L 28.2 11.5 L 6.3 50 L 28.1 88.5 L 71.80000000000001 88.5 L 93.7 50 L 72.3 12.3 z M 33.3 25.3 L 9.9 47.7 L 28.5 14.900000000000006 L 33.3 25.3 z M 70.7 14.8 L 77.10000000000001 50.5 L 36.9 25.8 L 70.7 14.8 z M 35.5 27.3 L 76.5 52.5 L 35.5 75.8 L 35.5 27.3 z M 77 54.5 L 69.8 85.3 L 37.199999999999996 77.2 L 77 54.5 z M 33.5 75 L 9.9 50.5 L 33.5 27.8 L 33.5 75 z M 33.2 77.6 L 28.6 85.3 L 11.5 55.1 L 33.2 77.6 z M 35 78.6 L 66.4 86.5 L 30.2 86.5 L 35 78.6 z M 79.3 53.3 L 90.89999999999999 50.8 L 72.1 84 L 79.3 53.3 z M 90.7 48.9 L 79.3 51.4 L 73.39999999999999 18.299999999999997 L 90.7 48.9 z M 35 24.3 L 30 13.5 L 68.2 13.5 L 35 24.3 z" stroke-linecap="round" />
</g>
</svg>