<?xml version="1.0" encoding="UTF-8" standalone="no" ?>
<!DOCTYPE svg PUBLIC "-//W3C//DTD SVG 1.1//EN" "http://www.w3.org/Graphics/SVG/1.1/DTD/svg11.dtd">
<svg xmlns="http://www.w3.org/2000/svg" xmlns:xlink="http://www.w3.org/1999/xlink" version="1.1" width="1080" height="1080" viewBox="0 0 1080 1080" xml:space="preserve">
<desc>Created with Fabric.js 5.2.4</desc>
<defs>
</defs>
<g transform="matrix(1 0 0 1 540 540)" id="fd9dfb7e-1e4a-4597-b4ef-7e5555ab969e"  >
<rect style="stroke: none; stroke-width: 1; stroke-dasharray: none; stroke-linecap: butt; stroke-dashoffset: 0; stroke-linejoin: miter; stroke-miterlimit: 4; fill: rgb(255,255,255); fill-rule: nonzero; opacity: 1; visibility: hidden;" vector-effect="non-scaling-stroke"  x="-540" y="-540" rx="0" ry="0" width="1080" height="1080" />
</g>
<g transform="matrix(1 0 0 1 540 540)" id="71d6ed8c-6d57-4911-ae57-854491861716"  >
</g>
<g transform="matrix(2.91 0 0 2.91 540 540)"  >
<rect style="stroke: none; stroke-width: 1; stroke-dasharray: none; stroke-linecap: butt; stroke-dashoffset: 0; stroke-linejoin: miter; stroke-miterlimit: 4; fill: none; fill-rule: nonzero; opacity: 1;" vector-effect="non-scaling-stroke"  x="-171.4257792588769" y="-171.4257792588769" rx="0" ry="0" width="342.8515585177538" height="342.8515585177538" />
</g>
<g transform="matrix(2.91 0 0 2.91 540 540)"  >
<path style="stroke: rgb(255,255,255); stroke-opacity: 0; stroke-width: 1; stroke-dasharray: none; stroke-linecap: butt; stroke-dashoffset: 0; stroke-linejoin: miter; stroke-miterlimit: 4; fill: rgb(51,40,133); fill-rule: nonzero; opacity: 1;" vector-effect="non-scaling-stroke"  transform=" translate(-171.43, -171.43)" d="M 0 171.426 C 0 76.74999999999999 76.75 0 171.426 0 C 266.102 0 342.852 76.75 342.852 171.426 C 342.852 266.102 266.102 342.852 171.426 342.852 C 76.74999999999999 342.852 0 266.102 0 171.426 z M 171.426 341.277 C 265.23199999999997 341.277 341.277 265.23199999999997 341.277 171.426 C 341.277 77.61999999999999 265.23199999999997 1.5749999999999886 171.426 1.5749999999999886 C 77.61999999999999 1.5749999999999886 1.5749999999999886 77.61999999999999 1.5749999999999886 171.426 C 1.5749999999999886 265.23199999999997 77.61999999999999 341.277 171.426 341.277 z" stroke-linecap="round" />
</g>
<g transform="matrix(2.91 0 0 2.91 540 540)"  >
<ellipse style="stroke: rgb(255,255,255); stroke-opacity: 0; stroke-width: 0; stroke-dasharray: none; stroke-linecap: butt; stroke-dashoffset: 0; stroke-linejoin: miter; stroke-miterlimit: 4; fill: rgb(51,40,133); fill-rule: nonzero; opacity: 1;" vector-effect="non-scaling-stroke"  cx="0" cy="0" rx="164.56874808852183" ry="164.56874808852183" />
</g>
<g transform="matrix(1.46 0 0 1.46 540 781.72)" id="text-0"  >
<path style="stroke: none; stroke-width: 1; stroke-dasharray: none; stroke-linecap: butt; stroke-dashoffset: 0; stroke-linejoin: miter; stroke-miterlimit: 4; fill: rgb(255,255,255); fill-rule: nonzero; opacity: 1;" vector-effect="non-scaling-stroke"  transform=" translate(-214.01, 16.8)" d="M 38.1 -16.75 L 38.1 -16.75 Q 38.1 0 17.3 0 L 17.3 0 L 1.65 0 L 1.65 -1.2 L 5.95 -1.7 L 5.95 -31.65 L 1.65 -32.25 L 1.65 -33.55 Q 3.95 -33.4 7 -33.4 L 7 -33.4 L 11.8 -33.4 L 18 -33.6 Q 22.55 -33.6 25.98 -32.85 Q 29.4 -32.1 32.25 -30.3 L 32.25 -30.3 Q 38.1 -26.6 38.1 -16.75 Z M 30.55 -16.7 L 30.55 -16.7 Q 30.55 -25.35 27.3 -28.7 L 27.3 -28.7 Q 26.25 -29.85 25.35 -30.43 Q 24.45 -31 23.1 -31.3 L 23.1 -31.3 Q 21.25 -31.75 18.75 -31.85 L 18.75 -31.85 L 18 -31.85 Q 14.35 -31.85 12.65 -31.6 L 12.65 -31.6 L 12.65 -1.75 L 17.3 -1.6 Q 22.05 -1.8 24.35 -2.9 L 24.35 -2.9 Q 30.55 -5.85 30.55 -16.7 Z M 74.95 -1.2 L 74.95 0 L 60.25 0 L 60.25 -1.2 L 64.3 -1.65 L 59.7 -13.15 L 48.45 -13.15 L 44.45 -2.5 L 48.9 -1.2 L 48.9 0 L 38.45 0 L 38.45 -1.2 L 42.25 -2.5 L 54.35 -33.4 L 57.85 -33.4 L 71.1 -1.65 L 74.95 -1.2 Z M 49.15 -15 L 58.95 -15 L 54.05 -27.15 L 49.15 -15 Z M 100.55 -32.2 L 100.55 -33.4 L 110.65 -33.4 L 110.65 -32.2 L 107.15 -31 L 107.15 0 L 103.75 0 L 81.5 -27.4 L 81.5 -2.45 L 85.7 -1.2 L 85.7 0 L 75.7 0 L 75.7 -1.2 L 79.35 -2.45 L 79.35 -31.75 L 75 -32.2 L 75 -33.4 L 84.4 -33.4 L 104.4 -8.5 L 104.4 -31.05 L 100.55 -32.2 Z M 148.24 -1.2 L 148.24 0 L 133.54 0 L 133.54 -1.2 L 137.59 -1.65 L 132.99 -13.15 L 121.74 -13.15 L 117.74 -2.5 L 122.19 -1.2 L 122.19 0 L 111.74 0 L 111.74 -1.2 L 115.54 -2.5 L 127.64 -33.4 L 131.14 -33.4 L 144.39 -1.65 L 148.24 -1.2 Z M 122.44 -15 L 132.24 -15 L 127.34 -27.15 L 122.44 -15 Z M 148.39 -33.4 L 163.74 -33.4 L 163.74 -32.25 L 159.39 -31.75 L 159.39 -1.6 L 171.84 -1.75 L 174.44 -7.45 L 176.04 -7.45 L 175.44 0 L 148.39 0 L 148.39 -1.2 L 152.74 -1.65 L 152.74 -31.75 L 148.39 -32.25 L 148.39 -33.4 Z M 197.09 -1.2 L 197.09 0 L 181.74 0 L 181.74 -1.2 L 186.09 -1.65 L 186.09 -14.35 L 174.69 -31.75 L 170.89 -32.2 L 170.89 -33.4 L 185.89 -33.4 L 185.89 -32.2 L 182.04 -31.75 L 191.54 -16.95 L 199.69 -31.05 L 195.94 -32.2 L 195.94 -33.4 L 206.09 -33.4 L 206.09 -32.2 L 202.29 -31 L 192.74 -14.75 L 192.74 -1.65 L 197.09 -1.2 Z M 236.74 -33.4 L 236.74 -25.85 L 235.24 -25.85 L 232.89 -31.6 L 224.84 -31.7 L 224.84 -1.65 L 229.49 -1.2 L 229.49 0 L 213.54 0 L 213.54 -1.2 L 218.19 -1.65 L 218.19 -31.7 L 210.14 -31.6 L 207.79 -25.85 L 206.34 -25.85 L 206.34 -33.4 L 221.54 -33.5 L 236.74 -33.4 Z M 254.48 -1.2 L 254.48 0 L 239.13 0 L 239.13 -1.2 L 243.48 -1.65 L 243.48 -31.75 L 239.13 -32.2 L 239.13 -33.4 L 254.48 -33.4 L 254.48 -32.2 L 250.13 -31.75 L 250.13 -1.65 L 254.48 -1.2 Z M 277.58 -33.75 L 277.58 -33.75 L 288.58 -33.3 L 288.88 -24.2 L 287.08 -24.2 L 285.38 -30.75 Q 281.93 -31.9 278.73 -31.9 L 278.73 -31.9 Q 272.78 -31.9 269.08 -27.98 Q 265.38 -24.05 265.38 -16.38 Q 265.38 -8.7 268.98 -5.1 Q 272.58 -1.5 278.06 -1.5 Q 283.53 -1.5 285.98 -2.7 L 285.98 -2.7 L 287.83 -8.4 L 289.43 -8.4 L 289.13 -1.05 Q 282.88 0.3 278.21 0.3 Q 273.53 0.3 270.23 -0.48 Q 266.93 -1.25 264.03 -3 Q 261.13 -4.75 259.51 -8.05 Q 257.88 -11.35 257.88 -15.95 Q 257.88 -20.55 259.56 -24.08 Q 261.23 -27.6 264.08 -29.65 L 264.08 -29.65 Q 269.78 -33.75 277.58 -33.75 Z M 295.38 -1.7 L 295.38 -1.7 Q 293.28 -3.05 293.28 -5.15 L 293.28 -5.15 Q 293.28 -8.05 297.88 -8.75 L 297.88 -8.75 Q 298.68 -4.1 301.28 -2.3 L 301.28 -2.3 Q 303.58 -0.7 306.15 -0.7 Q 308.73 -0.7 310.6 -2.27 Q 312.48 -3.85 312.48 -7.45 L 312.48 -7.45 Q 312.48 -10.15 310.55 -11.73 Q 308.63 -13.3 305.68 -14.5 Q 302.73 -15.7 301.68 -16.18 Q 300.63 -16.65 299 -17.6 Q 297.38 -18.55 296.58 -19.4 L 296.58 -19.4 Q 294.58 -21.7 294.58 -24.7 L 294.58 -24.7 Q 294.58 -29.4 298.08 -31.8 Q 301.58 -34.2 307.83 -34.2 L 307.83 -34.2 Q 311.38 -34.2 316.08 -33.4 L 316.08 -33.4 L 316.08 -26 L 314.43 -26 L 312.43 -31.9 Q 309.93 -32.7 307.35 -32.7 Q 304.78 -32.7 302.88 -31.08 Q 300.98 -29.45 300.98 -26.25 L 300.98 -26.25 Q 300.98 -22.6 304.28 -20.8 L 304.28 -20.8 Q 305.93 -19.95 308.18 -19.1 Q 310.43 -18.25 311.43 -17.82 Q 312.43 -17.4 314.08 -16.48 Q 315.73 -15.55 316.53 -14.65 Q 317.33 -13.75 317.98 -12.28 Q 318.63 -10.8 318.63 -9.05 L 318.63 -9.05 Q 318.63 -4.8 315.03 -2.1 Q 311.43 0.6 305.2 0.6 Q 298.98 0.6 295.38 -1.7 Z M 334.02 -33.4 L 349.37 -33.4 L 349.37 -32.25 L 345.02 -31.75 L 345.02 -1.6 L 357.47 -1.75 L 360.07 -7.45 L 361.67 -7.45 L 361.07 0 L 334.02 0 L 334.02 -1.2 L 338.37 -1.65 L 338.37 -31.75 L 334.02 -32.25 L 334.02 -33.4 Z M 398.12 -1.2 L 398.12 0 L 383.42 0 L 383.42 -1.2 L 387.47 -1.65 L 382.87 -13.15 L 371.62 -13.15 L 367.62 -2.5 L 372.07 -1.2 L 372.07 0 L 361.62 0 L 361.62 -1.2 L 365.42 -2.5 L 377.52 -33.4 L 381.02 -33.4 L 394.27 -1.65 L 398.12 -1.2 Z M 372.32 -15 L 382.12 -15 L 377.22 -27.15 L 372.32 -15 Z M 398.17 -33.4 L 412.77 -33.4 Q 424.72 -33.4 424.72 -25.55 L 424.72 -25.55 Q 424.72 -22.35 422.67 -20.23 Q 420.62 -18.1 416.72 -17.65 L 416.72 -17.65 Q 421.77 -16.7 424.07 -14.7 Q 426.37 -12.7 426.37 -9.05 L 426.37 -9.05 Q 426.37 -4.45 422.47 -2.23 Q 418.57 0 412.32 0 L 412.32 0 L 398.77 0 L 398.77 -1.2 L 402.42 -1.7 L 402.42 -31.75 L 398.17 -32.25 L 398.17 -33.4 Z M 410.47 -16.65 L 410.47 -16.65 L 409.17 -16.6 L 409.17 -1.4 Q 410.12 -1.15 411.37 -1.15 L 411.37 -1.15 Q 414.82 -1.15 417.17 -3.08 Q 419.52 -5 419.52 -9.45 L 419.52 -9.45 Q 419.52 -15.1 414.62 -16.2 L 414.62 -16.2 Q 412.62 -16.65 410.47 -16.65 Z M 411.47 -32.05 L 409.17 -32.05 L 409.17 -18.05 L 410.37 -18.05 Q 413.87 -18.05 415.82 -19.95 Q 417.77 -21.85 417.77 -25.48 Q 417.77 -29.1 416.27 -30.58 Q 414.77 -32.05 411.47 -32.05 L 411.47 -32.05 Z" stroke-linecap="round" />
</g>
<g transform="matrix(0.69 0 0 0.69 540 851.24)" id="text-1"  >
<path style="stroke: none; stroke-width: 1; stroke-dasharray: none; stroke-linecap: butt; stroke-dashoffset: 0; stroke-linejoin: miter; stroke-miterlimit: 4; fill: rgb(255,255,255); fill-rule: nonzero; opacity: 1;" vector-effect="non-scaling-stroke"  transform=" translate(-454.3, 12.8)" d="M 22.25 -2.85 L 22.25 0 L 4 0 L 4 -33.7 L 21.95 -33.7 L 21.95 -30.85 L 7.1 -30.85 L 7.1 -18.25 L 20.2 -18.25 L 20.2 -15.4 L 7.1 -15.4 L 7.1 -2.85 L 22.25 -2.85 Z M 64.99 -17.7 L 64.99 0 L 61.94 0 L 61.94 -16.75 Q 61.94 -22.8 56.64 -22.8 L 56.64 -22.8 Q 54.04 -22.8 52.02 -20.4 Q 49.99 -18 49.99 -14 L 49.99 -14 L 49.99 0 L 46.94 0 L 46.94 -16.75 Q 46.94 -22.8 41.64 -22.8 L 41.64 -22.8 Q 39.04 -22.8 37.02 -20.4 Q 34.99 -18 34.99 -14 L 34.99 -14 L 34.99 0 L 31.94 0 L 31.94 -25.35 L 34.99 -25.35 L 34.99 -21.2 Q 37.14 -25.75 42.09 -25.75 L 42.09 -25.75 Q 48.19 -25.75 49.59 -20.75 L 49.59 -20.75 Q 51.94 -25.75 57.09 -25.75 L 57.09 -25.75 Q 61.09 -25.75 63.04 -23.53 Q 64.99 -21.3 64.99 -17.7 L 64.99 -17.7 Z M 78.99 -3.8 L 78.99 10 L 75.94 10 L 75.94 -25.35 L 78.99 -25.35 L 78.99 -21.65 Q 81.64 -25.75 86.84 -25.75 L 86.84 -25.75 Q 91.94 -25.75 94.79 -22.03 Q 97.64 -18.3 97.64 -12.95 L 97.64 -12.95 Q 97.64 -7.05 94.59 -3.33 Q 91.54 0.4 86.74 0.4 L 86.74 0.4 Q 81.79 0.4 78.99 -3.8 L 78.99 -3.8 Z M 78.99 -12.55 L 78.99 -12.55 Q 78.99 -9.75 79.76 -7.68 Q 80.54 -5.6 81.76 -4.53 Q 82.99 -3.45 84.21 -2.98 Q 85.44 -2.5 86.64 -2.5 L 86.64 -2.5 Q 90.04 -2.5 92.24 -5.23 Q 94.44 -7.95 94.44 -13 L 94.44 -13 Q 94.44 -17.35 92.31 -20.1 Q 90.19 -22.85 86.94 -22.85 Q 83.69 -22.85 81.34 -20.48 Q 78.99 -18.1 78.99 -12.55 Z M 129.33 -12.55 L 129.33 -12.55 Q 129.33 -6.9 126.16 -3.23 Q 122.98 0.45 117.43 0.45 L 117.43 0.45 Q 112.08 0.45 108.93 -3.25 Q 105.78 -6.95 105.78 -12.55 L 105.78 -12.55 Q 105.78 -18.1 109.03 -21.9 Q 112.28 -25.7 117.43 -25.7 L 117.43 -25.7 Q 123.08 -25.7 126.21 -21.98 Q 129.33 -18.25 129.33 -12.55 Z M 108.98 -12.55 L 108.98 -12.55 Q 108.98 -8.4 111.31 -5.43 Q 113.63 -2.45 117.43 -2.45 L 117.43 -2.45 Q 121.58 -2.45 123.86 -5.38 Q 126.13 -8.3 126.13 -12.55 L 126.13 -12.55 Q 126.13 -16.95 123.98 -19.88 Q 121.83 -22.8 117.43 -22.8 L 117.43 -22.8 Q 113.48 -22.8 111.23 -19.8 Q 108.98 -16.8 108.98 -12.55 Z M 150.93 -8.3 L 148.58 0 L 144.48 0 L 136.73 -25.35 L 140.08 -25.35 L 142.58 -16.95 Q 143.98 -12.25 144.95 -8.78 Q 145.93 -5.3 146.23 -4.2 L 146.23 -4.2 L 146.48 -3.05 Q 147.38 -6.3 150.48 -17 L 150.48 -17 L 152.88 -25.35 L 156.48 -25.35 L 158.98 -17 L 163.08 -2.95 Q 163.88 -5.9 167.33 -17 L 167.33 -17 L 169.93 -25.35 L 173.13 -25.35 L 165.13 0 L 161.03 0 L 158.58 -8.3 L 154.68 -21.8 Q 153.83 -18.65 150.93 -8.3 L 150.93 -8.3 Z M 200.22 -4.35 L 200.22 -1.25 Q 197.22 0.25 193.22 0.25 L 193.22 0.25 Q 187.57 0.25 184.04 -3.28 Q 180.52 -6.8 180.52 -12.55 L 180.52 -12.55 Q 180.52 -18.65 183.62 -22.15 Q 186.72 -25.65 191.67 -25.65 L 191.67 -25.65 Q 196.32 -25.65 199.07 -22.6 Q 201.82 -19.55 201.82 -14 L 201.82 -14 Q 201.82 -12.3 201.62 -11.3 L 201.62 -11.3 L 183.72 -11.3 Q 184.07 -7.1 186.62 -4.88 Q 189.17 -2.65 193.37 -2.65 L 193.37 -2.65 Q 197.67 -2.65 200.22 -4.35 L 200.22 -4.35 Z M 191.57 -22.8 L 191.57 -22.8 Q 188.37 -22.8 186.22 -20.55 Q 184.07 -18.3 183.72 -14.1 L 183.72 -14.1 L 198.67 -14.1 L 198.67 -15.25 Q 198.67 -18.7 196.74 -20.75 Q 194.82 -22.8 191.57 -22.8 Z M 214.71 -14.15 L 214.71 0 L 211.66 0 L 211.66 -25.35 L 214.71 -25.35 L 214.71 -21.05 Q 216.81 -25.65 221.81 -25.65 L 221.81 -25.65 Q 222.16 -25.65 223.06 -25.55 L 223.06 -25.55 L 223.06 -22.45 Q 222.06 -22.75 221.06 -22.75 L 221.06 -22.75 Q 218.36 -22.75 216.54 -20.08 Q 214.71 -17.4 214.71 -14.15 L 214.71 -14.15 Z M 264.06 -17.7 L 264.06 0 L 261.01 0 L 261.01 -16.75 Q 261.01 -22.8 255.71 -22.8 L 255.71 -22.8 Q 253.11 -22.8 251.08 -20.4 Q 249.06 -18 249.06 -14 L 249.06 -14 L 249.06 0 L 246.01 0 L 246.01 -16.75 Q 246.01 -22.8 240.71 -22.8 L 240.71 -22.8 Q 238.11 -22.8 236.08 -20.4 Q 234.06 -18 234.06 -14 L 234.06 -14 L 234.06 0 L 231.01 0 L 231.01 -25.35 L 234.06 -25.35 L 234.06 -21.2 Q 236.21 -25.75 241.16 -25.75 L 241.16 -25.75 Q 247.26 -25.75 248.66 -20.75 L 248.66 -20.75 Q 251.01 -25.75 256.16 -25.75 L 256.16 -25.75 Q 260.16 -25.75 262.11 -23.53 Q 264.06 -21.3 264.06 -17.7 L 264.06 -17.7 Z M 293.15 -4.35 L 293.15 -1.25 Q 290.15 0.25 286.15 0.25 L 286.15 0.25 Q 280.5 0.25 276.98 -3.28 Q 273.45 -6.8 273.45 -12.55 L 273.45 -12.55 Q 273.45 -18.65 276.55 -22.15 Q 279.65 -25.65 284.6 -25.65 L 284.6 -25.65 Q 289.25 -25.65 292 -22.6 Q 294.75 -19.55 294.75 -14 L 294.75 -14 Q 294.75 -12.3 294.55 -11.3 L 294.55 -11.3 L 276.65 -11.3 Q 277 -7.1 279.55 -4.88 Q 282.1 -2.65 286.3 -2.65 L 286.3 -2.65 Q 290.6 -2.65 293.15 -4.35 L 293.15 -4.35 Z M 284.5 -22.8 L 284.5 -22.8 Q 281.3 -22.8 279.15 -20.55 Q 277 -18.3 276.65 -14.1 L 276.65 -14.1 L 291.6 -14.1 L 291.6 -15.25 Q 291.6 -18.7 289.68 -20.75 Q 287.75 -22.8 284.5 -22.8 Z M 323.74 -17.7 L 323.74 0 L 320.69 0 L 320.69 -16.75 Q 320.69 -19.7 319.19 -21.25 Q 317.69 -22.8 315.24 -22.8 L 315.24 -22.8 Q 312.14 -22.8 309.89 -20.43 Q 307.64 -18.05 307.64 -14 L 307.64 -14 L 307.64 0 L 304.59 0 L 304.59 -25.35 L 307.64 -25.35 L 307.64 -21 Q 309.99 -25.75 315.69 -25.75 L 315.69 -25.75 Q 319.34 -25.75 321.54 -23.5 Q 323.74 -21.25 323.74 -17.7 L 323.74 -17.7 Z M 346.84 -3.8 L 346.84 -0.7 Q 345.39 0.25 343.49 0.25 L 343.49 0.25 Q 336.29 0.25 336.29 -7.15 L 336.29 -7.15 L 336.29 -22.75 L 332.14 -22.75 L 332.14 -25.35 L 336.29 -25.35 L 336.29 -31.7 L 339.39 -31.7 L 339.39 -25.35 L 346.64 -25.35 L 346.64 -22.75 L 339.39 -22.75 L 339.39 -7 Q 339.39 -2.65 343.44 -2.65 L 343.44 -2.65 Q 345.44 -2.65 346.84 -3.8 L 346.84 -3.8 Z M 390.73 -25.35 L 381.73 0 L 377.63 0 L 368.88 -25.35 L 372.08 -25.35 L 375.63 -14.7 L 379.68 -2.45 Q 380.18 -4.3 383.83 -14.7 L 383.83 -14.7 L 387.53 -25.35 L 390.73 -25.35 Z M 402.92 -25.35 L 402.92 0 L 399.87 0 L 399.87 -25.35 L 402.92 -25.35 Z M 402.9 -34.98 Q 403.52 -34.35 403.52 -33.45 Q 403.52 -32.55 402.9 -31.95 Q 402.27 -31.35 401.37 -31.35 Q 400.47 -31.35 399.87 -31.95 Q 399.27 -32.55 399.27 -33.45 Q 399.27 -34.35 399.87 -34.98 Q 400.47 -35.6 401.37 -35.6 Q 402.27 -35.6 402.9 -34.98 Z M 421.71 -2.55 L 421.71 -2.55 Q 424.71 -2.55 426.51 -4.2 Q 428.31 -5.85 428.31 -8.4 L 428.31 -8.4 L 428.31 -12.05 L 423.36 -12.05 Q 419.81 -12.05 418.06 -10.68 Q 416.31 -9.3 416.31 -7.25 L 416.31 -7.25 Q 416.31 -5.15 417.69 -3.85 Q 419.06 -2.55 421.71 -2.55 Z M 428.31 0 L 428.31 -2.95 Q 426.21 0.25 421.01 0.25 L 421.01 0.25 Q 417.51 0.25 415.29 -1.83 Q 413.06 -3.9 413.06 -7.15 L 413.06 -7.15 Q 413.06 -10.8 415.89 -12.83 Q 418.71 -14.85 423.36 -14.85 L 423.36 -14.85 L 428.31 -14.85 L 428.31 -16 Q 428.31 -19.4 426.86 -21.13 Q 425.41 -22.85 422.01 -22.85 L 422.01 -22.85 Q 418.06 -22.85 414.91 -20.7 L 414.91 -20.7 L 414.91 -24 Q 417.81 -25.75 422.06 -25.75 L 422.06 -25.75 Q 431.36 -25.75 431.36 -16 L 431.36 -16 L 431.36 0 L 428.31 0 Z M 458.6 -12.35 L 458.6 -12.35 Q 458.6 -8 460.73 -5.25 Q 462.85 -2.5 466.1 -2.5 Q 469.35 -2.5 471.7 -4.88 Q 474.05 -7.25 474.05 -12.8 L 474.05 -12.8 Q 474.05 -15.6 473.28 -17.68 Q 472.5 -19.75 471.28 -20.83 Q 470.05 -21.9 468.83 -22.38 Q 467.6 -22.85 466.4 -22.85 L 466.4 -22.85 Q 463 -22.85 460.8 -20.13 Q 458.6 -17.4 458.6 -12.35 Z M 477.1 -35.35 L 477.1 0 L 474.05 0 L 474.05 -3.7 Q 471.4 0.4 466.2 0.4 L 466.2 0.4 Q 461.1 0.4 458.25 -3.33 Q 455.4 -7.05 455.4 -12.4 L 455.4 -12.4 Q 455.4 -18.3 458.45 -22.03 Q 461.5 -25.75 466.3 -25.75 L 466.3 -25.75 Q 471.25 -25.75 474.05 -21.55 L 474.05 -21.55 L 474.05 -35.35 L 477.1 -35.35 Z M 495.7 -2.55 L 495.7 -2.55 Q 498.7 -2.55 500.5 -4.2 Q 502.3 -5.85 502.3 -8.4 L 502.3 -8.4 L 502.3 -12.05 L 497.35 -12.05 Q 493.8 -12.05 492.05 -10.68 Q 490.3 -9.3 490.3 -7.25 L 490.3 -7.25 Q 490.3 -5.15 491.67 -3.85 Q 493.05 -2.55 495.7 -2.55 Z M 502.3 0 L 502.3 -2.95 Q 500.2 0.25 495 0.25 L 495 0.25 Q 491.5 0.25 489.27 -1.83 Q 487.05 -3.9 487.05 -7.15 L 487.05 -7.15 Q 487.05 -10.8 489.87 -12.83 Q 492.7 -14.85 497.35 -14.85 L 497.35 -14.85 L 502.3 -14.85 L 502.3 -16 Q 502.3 -19.4 500.85 -21.13 Q 499.4 -22.85 496 -22.85 L 496 -22.85 Q 492.05 -22.85 488.9 -20.7 L 488.9 -20.7 L 488.9 -24 Q 491.8 -25.75 496.05 -25.75 L 496.05 -25.75 Q 505.35 -25.75 505.35 -16 L 505.35 -16 L 505.35 0 L 502.3 0 Z M 528.44 -3.8 L 528.44 -0.7 Q 526.99 0.25 525.09 0.25 L 525.09 0.25 Q 517.89 0.25 517.89 -7.15 L 517.89 -7.15 L 517.89 -22.75 L 513.74 -22.75 L 513.74 -25.35 L 517.89 -25.35 L 517.89 -31.7 L 520.99 -31.7 L 520.99 -25.35 L 528.24 -25.35 L 528.24 -22.75 L 520.99 -22.75 L 520.99 -7 Q 520.99 -2.65 525.04 -2.65 L 525.04 -2.65 Q 527.04 -2.65 528.44 -3.8 L 528.44 -3.8 Z M 545.48 -2.55 L 545.48 -2.55 Q 548.48 -2.55 550.28 -4.2 Q 552.08 -5.85 552.08 -8.4 L 552.08 -8.4 L 552.08 -12.05 L 547.13 -12.05 Q 543.58 -12.05 541.83 -10.68 Q 540.08 -9.3 540.08 -7.25 L 540.08 -7.25 Q 540.08 -5.15 541.46 -3.85 Q 542.83 -2.55 545.48 -2.55 Z M 552.08 0 L 552.08 -2.95 Q 549.98 0.25 544.78 0.25 L 544.78 0.25 Q 541.28 0.25 539.06 -1.83 Q 536.83 -3.9 536.83 -7.15 L 536.83 -7.15 Q 536.83 -10.8 539.66 -12.83 Q 542.48 -14.85 547.13 -14.85 L 547.13 -14.85 L 552.08 -14.85 L 552.08 -16 Q 552.08 -19.4 550.63 -21.13 Q 549.18 -22.85 545.78 -22.85 L 545.78 -22.85 Q 541.83 -22.85 538.68 -20.7 L 538.68 -20.7 L 538.68 -24 Q 541.58 -25.75 545.83 -25.75 L 545.83 -25.75 Q 555.13 -25.75 555.13 -16 L 555.13 -16 L 555.13 0 L 552.08 0 Z M 576.53 -14.9 L 576.53 -12.15 L 565.28 -12.15 L 565.28 -14.9 L 576.53 -14.9 Z M 588.62 -12.35 L 588.62 -12.35 Q 588.62 -8 590.75 -5.25 Q 592.87 -2.5 596.12 -2.5 Q 599.37 -2.5 601.72 -4.88 Q 604.07 -7.25 604.07 -12.8 L 604.07 -12.8 Q 604.07 -15.6 603.3 -17.68 Q 602.52 -19.75 601.3 -20.83 Q 600.07 -21.9 598.85 -22.38 Q 597.62 -22.85 596.42 -22.85 L 596.42 -22.85 Q 593.02 -22.85 590.82 -20.13 Q 588.62 -17.4 588.62 -12.35 Z M 607.12 -35.35 L 607.12 0 L 604.07 0 L 604.07 -3.7 Q 601.42 0.4 596.22 0.4 L 596.22 0.4 Q 591.12 0.4 588.27 -3.33 Q 585.42 -7.05 585.42 -12.4 L 585.42 -12.4 Q 585.42 -18.3 588.47 -22.03 Q 591.52 -25.75 596.32 -25.75 L 596.32 -25.75 Q 601.27 -25.75 604.07 -21.55 L 604.07 -21.55 L 604.07 -35.35 L 607.12 -35.35 Z M 621.41 -14.15 L 621.41 0 L 618.36 0 L 618.36 -25.35 L 621.41 -25.35 L 621.41 -21.05 Q 623.51 -25.65 628.51 -25.65 L 628.51 -25.65 Q 628.86 -25.65 629.76 -25.55 L 629.76 -25.55 L 629.76 -22.45 Q 628.76 -22.75 627.76 -22.75 L 627.76 -22.75 Q 625.06 -22.75 623.24 -20.08 Q 621.41 -17.4 621.41 -14.15 L 621.41 -14.15 Z M 640.96 -25.35 L 640.96 0 L 637.91 0 L 637.91 -25.35 L 640.96 -25.35 Z M 640.93 -34.98 Q 641.56 -34.35 641.56 -33.45 Q 641.56 -32.55 640.93 -31.95 Q 640.31 -31.35 639.41 -31.35 Q 638.51 -31.35 637.91 -31.95 Q 637.31 -32.55 637.31 -33.45 Q 637.31 -34.35 637.91 -34.98 Q 638.51 -35.6 639.41 -35.6 Q 640.31 -35.6 640.93 -34.98 Z M 671.95 -25.35 L 662.95 0 L 658.85 0 L 650.1 -25.35 L 653.3 -25.35 L 656.85 -14.7 L 660.9 -2.45 Q 661.4 -4.3 665.05 -14.7 L 665.05 -14.7 L 668.75 -25.35 L 671.95 -25.35 Z M 699.05 -4.35 L 699.05 -1.25 Q 696.05 0.25 692.05 0.25 L 692.05 0.25 Q 686.4 0.25 682.87 -3.28 Q 679.35 -6.8 679.35 -12.55 L 679.35 -12.55 Q 679.35 -18.65 682.45 -22.15 Q 685.55 -25.65 690.5 -25.65 L 690.5 -25.65 Q 695.15 -25.65 697.9 -22.6 Q 700.65 -19.55 700.65 -14 L 700.65 -14 Q 700.65 -12.3 700.45 -11.3 L 700.45 -11.3 L 682.55 -11.3 Q 682.9 -7.1 685.45 -4.88 Q 688 -2.65 692.2 -2.65 L 692.2 -2.65 Q 696.5 -2.65 699.05 -4.35 L 699.05 -4.35 Z M 690.4 -22.8 L 690.4 -22.8 Q 687.2 -22.8 685.05 -20.55 Q 682.9 -18.3 682.55 -14.1 L 682.55 -14.1 L 697.5 -14.1 L 697.5 -15.25 Q 697.5 -18.7 695.57 -20.75 Q 693.65 -22.8 690.4 -22.8 Z M 729.64 -17.7 L 729.64 0 L 726.59 0 L 726.59 -16.75 Q 726.59 -19.7 725.09 -21.25 Q 723.59 -22.8 721.14 -22.8 L 721.14 -22.8 Q 718.04 -22.8 715.79 -20.43 Q 713.54 -18.05 713.54 -14 L 713.54 -14 L 713.54 0 L 710.49 0 L 710.49 -25.35 L 713.54 -25.35 L 713.54 -21 Q 715.89 -25.75 721.59 -25.75 L 721.59 -25.75 Q 725.24 -25.75 727.44 -23.5 Q 729.64 -21.25 729.64 -17.7 L 729.64 -17.7 Z M 756.88 -12.35 L 756.88 -12.35 Q 756.88 -8 759 -5.25 Q 761.13 -2.5 764.38 -2.5 Q 767.63 -2.5 769.98 -4.88 Q 772.33 -7.25 772.33 -12.8 L 772.33 -12.8 Q 772.33 -15.6 771.55 -17.68 Q 770.78 -19.75 769.55 -20.83 Q 768.33 -21.9 767.1 -22.38 Q 765.88 -22.85 764.68 -22.85 L 764.68 -22.85 Q 761.28 -22.85 759.08 -20.13 Q 756.88 -17.4 756.88 -12.35 Z M 775.38 -35.35 L 775.38 0 L 772.33 0 L 772.33 -3.7 Q 769.68 0.4 764.48 0.4 L 764.48 0.4 Q 759.38 0.4 756.53 -3.33 Q 753.68 -7.05 753.68 -12.4 L 753.68 -12.4 Q 753.68 -18.3 756.73 -22.03 Q 759.78 -25.75 764.58 -25.75 L 764.58 -25.75 Q 769.53 -25.75 772.33 -21.55 L 772.33 -21.55 L 772.33 -35.35 L 775.38 -35.35 Z M 804.77 -4.35 L 804.77 -1.25 Q 801.77 0.25 797.77 0.25 L 797.77 0.25 Q 792.12 0.25 788.6 -3.28 Q 785.07 -6.8 785.07 -12.55 L 785.07 -12.55 Q 785.07 -18.65 788.17 -22.15 Q 791.27 -25.65 796.22 -25.65 L 796.22 -25.65 Q 800.87 -25.65 803.62 -22.6 Q 806.37 -19.55 806.37 -14 L 806.37 -14 Q 806.37 -12.3 806.17 -11.3 L 806.17 -11.3 L 788.27 -11.3 Q 788.62 -7.1 791.17 -4.88 Q 793.72 -2.65 797.92 -2.65 L 797.92 -2.65 Q 802.22 -2.65 804.77 -4.35 L 804.77 -4.35 Z M 796.12 -22.8 L 796.12 -22.8 Q 792.92 -22.8 790.77 -20.55 Q 788.62 -18.3 788.27 -14.1 L 788.27 -14.1 L 803.22 -14.1 L 803.22 -15.25 Q 803.22 -18.7 801.3 -20.75 Q 799.37 -22.8 796.12 -22.8 Z M 830.97 -6.5 L 830.97 -6.5 Q 830.97 -3.35 828.79 -1.53 Q 826.62 0.3 822.82 0.3 L 822.82 0.3 Q 818.22 0.3 815.42 -1.2 L 815.42 -1.2 L 815.42 -4.35 Q 818.77 -2.45 822.62 -2.45 L 822.62 -2.45 Q 825.17 -2.45 826.49 -3.5 Q 827.82 -4.55 827.82 -6.25 L 827.82 -6.25 Q 827.82 -8.25 826.44 -9.35 Q 825.07 -10.45 821.92 -11.7 L 821.92 -11.7 Q 818.87 -12.9 817.07 -14.5 Q 815.27 -16.1 815.27 -18.9 L 815.27 -18.9 Q 815.27 -21.95 817.52 -23.78 Q 819.77 -25.6 823.17 -25.6 L 823.17 -25.6 Q 827.27 -25.6 829.47 -24.45 L 829.47 -24.45 L 829.47 -21.4 Q 827.12 -22.75 823.12 -22.75 L 823.12 -22.75 Q 820.92 -22.75 819.64 -21.73 Q 818.37 -20.7 818.37 -19.05 L 818.37 -19.05 Q 818.37 -18.05 818.74 -17.3 Q 819.12 -16.55 820.04 -15.93 Q 820.97 -15.3 821.62 -15 Q 822.27 -14.7 823.72 -14.1 L 823.72 -14.1 Q 827.22 -12.7 829.09 -11.03 Q 830.97 -9.35 830.97 -6.5 Z M 843.41 -25.35 L 843.41 0 L 840.36 0 L 840.36 -25.35 L 843.41 -25.35 Z M 843.38 -34.98 Q 844.01 -34.35 844.01 -33.45 Q 844.01 -32.55 843.38 -31.95 Q 842.76 -31.35 841.86 -31.35 Q 840.96 -31.35 840.36 -31.95 Q 839.76 -32.55 839.76 -33.45 Q 839.76 -34.35 840.36 -34.98 Q 840.96 -35.6 841.86 -35.6 Q 842.76 -35.6 843.38 -34.98 Z M 874.5 -25.35 L 874.5 -1.95 Q 874.5 3.8 871.4 6.68 Q 868.3 9.55 863.4 9.55 L 863.4 9.55 Q 859.05 9.55 856 8.1 L 856 8.1 L 856 5.1 Q 859.1 6.65 863.15 6.65 L 863.15 6.65 Q 866.95 6.65 869.2 4.58 Q 871.45 2.5 871.45 -1.95 L 871.45 -1.95 L 871.45 -5.25 Q 868.9 -0.6 863.85 -0.6 L 863.85 -0.6 Q 859.45 -0.6 856.38 -3.85 Q 853.3 -7.1 853.3 -12.65 L 853.3 -12.65 Q 853.3 -18.35 856.13 -22.05 Q 858.95 -25.75 863.55 -25.75 L 863.55 -25.75 Q 869 -25.75 871.45 -20.9 L 871.45 -20.9 L 871.45 -25.35 L 874.5 -25.35 Z M 856.5 -12.8 L 856.5 -12.8 Q 856.5 -8.25 858.8 -5.88 Q 861.1 -3.5 863.9 -3.5 L 863.9 -3.5 Q 866.75 -3.5 869.1 -5.73 Q 871.45 -7.95 871.45 -12.55 L 871.45 -12.55 Q 871.45 -17.8 869.2 -20.33 Q 866.95 -22.85 864.15 -22.85 L 864.15 -22.85 Q 860.6 -22.85 858.55 -20.05 Q 856.5 -17.25 856.5 -12.8 Z M 904.6 -17.7 L 904.6 0 L 901.55 0 L 901.55 -16.75 Q 901.55 -19.7 900.05 -21.25 Q 898.55 -22.8 896.1 -22.8 L 896.1 -22.8 Q 893 -22.8 890.75 -20.43 Q 888.5 -18.05 888.5 -14 L 888.5 -14 L 888.5 0 L 885.45 0 L 885.45 -25.35 L 888.5 -25.35 L 888.5 -21 Q 890.85 -25.75 896.55 -25.75 L 896.55 -25.75 Q 900.2 -25.75 902.4 -23.5 Q 904.6 -21.25 904.6 -17.7 L 904.6 -17.7 Z" stroke-linecap="round" />
</g>
<g transform="matrix(7.06 0 0 7.06 540 421.33)"  >
<path style="stroke: none; stroke-width: 1; stroke-dasharray: none; stroke-linecap: butt; stroke-dashoffset: 0; stroke-linejoin: miter; stroke-miterlimit: 4; fill: rgb(255,255,255); fill-rule: nonzero; opacity: 1;" vector-effect="non-scaling-stroke"  transform=" translate(-50, -50)" d="M 72.3 12.3 L 72.3 12.3 L 72.3 12.3 L 71.89999999999999 11.5 L 28.2 11.5 L 6.3 50 L 28.1 88.5 L 71.80000000000001 88.5 L 93.7 50 L 72.3 12.3 z M 33.3 25.3 L 9.9 47.7 L 28.5 14.900000000000006 L 33.3 25.3 z M 70.7 14.8 L 77.10000000000001 50.5 L 36.9 25.8 L 70.7 14.8 z M 35.5 27.3 L 76.5 52.5 L 35.5 75.8 L 35.5 27.3 z M 77 54.5 L 69.8 85.3 L 37.199999999999996 77.2 L 77 54.5 z M 33.5 75 L 9.9 50.5 L 33.5 27.8 L 33.5 75 z M 33.2 77.6 L 28.6 85.3 L 11.5 55.1 L 33.2 77.6 z M 35 78.6 L 66.4 86.5 L 30.2 86.5 L 35 78.6 z M 79.3 53.3 L 90.89999999999999 50.8 L 72.1 84 L 79.3 53.3 z M 90.7 48.9 L 79.3 51.4 L 73.39999999999999 18.299999999999997 L 90.7 48.9 z M 35 24.3 L 30 13.5 L 68.2 13.5 L 35 24.3 z" stroke-linecap="round" />
</g>
</svg>